<?xml version="1.0" encoding="UTF-8"?>
<svg version="1.1" xmlns="http://www.w3.org/2000/svg" width="431" height="87">
<path d="M0 0 C0.77666016 -0.00322266 1.55332031 -0.00644531 2.35351562 -0.00976562 C6.87304012 0.03232986 10.77010092 0.36858062 14.9375 2.3125 C16.0726555 5.7179665 15.78649821 6.62973087 14.6875 9.9375 C14.30851562 11.13246094 14.30851562 11.13246094 13.921875 12.3515625 C12.9375 14.3125 12.9375 14.3125 9.9375 15.3125 C9.23625 15.168125 8.535 15.02375 7.8125 14.875 C2.70425158 13.87556009 -2.12165363 13.52790253 -7 15.5 C-9.84077705 17.99644044 -10.87486518 20.42574112 -11.25170898 24.21508789 C-11.33135322 26.39703462 -11.33526158 28.56678505 -11.3125 30.75 C-11.32023437 31.48798828 -11.32796875 32.22597656 -11.3359375 32.98632812 C-11.32004885 37.45500977 -10.85970021 41.14273691 -9.0625 45.3125 C-5.68587056 47.13068508 -0.80637363 46.37489789 2.9375 46.3125 C3.2675 43.6725 3.5975 41.0325 3.9375 38.3125 C1.6275 38.3125 -0.6825 38.3125 -3.0625 38.3125 C-5.56464932 33.60257187 -4.80832535 30.4028884 -4.0625 25.3125 C-0.58335059 25.28362186 2.89576831 25.26574313 6.375 25.25 C7.86483398 25.23743164 7.86483398 25.23743164 9.38476562 25.22460938 C10.80112305 25.21977539 10.80112305 25.21977539 12.24609375 25.21484375 C13.55791626 25.20698853 13.55791626 25.20698853 14.89624023 25.19897461 C16.9375 25.3125 16.9375 25.3125 17.9375 26.3125 C18.17948864 30.40944108 18.1660101 34.50978432 18.17773438 38.61328125 C18.18742838 40.67228773 18.21843283 42.73029107 18.25 44.7890625 C18.25773437 46.73039062 18.25773437 46.73039062 18.265625 48.7109375 C18.27964355 50.50023682 18.27964355 50.50023682 18.29394531 52.32568359 C17.9375 55.3125 17.9375 55.3125 16.53198242 57.16577148 C10.01327216 61.85393289 1.65013654 62.1782041 -6.0625 61.3125 C-12.49440624 59.90552051 -17.88788621 57.8388172 -21.84765625 52.3984375 C-28.16413241 41.5527839 -28.66352425 29.49611301 -26.0625 17.375 C-23.82050947 10.36349188 -19.30847749 5.06826072 -12.86328125 1.58203125 C-8.60621588 -0.0982394 -4.52466482 -0.09434247 0 0 Z " fill="#FAFDFD" transform="translate(34.0625,4.6875)"/>
<path d="M0 0 C2.14576637 -0.02685938 4.29162645 -0.04633088 6.4375 -0.0625 C7.63246094 -0.07410156 8.82742187 -0.08570313 10.05859375 -0.09765625 C13 0 13 0 14 1 C14.08669432 2.4887186 14.10703494 3.981445 14.09765625 5.47265625 C14.09443359 6.37177734 14.09121094 7.27089844 14.08789062 8.19726562 C14.07951172 9.14279297 14.07113281 10.08832031 14.0625 11.0625 C14.05798828 12.01189453 14.05347656 12.96128906 14.04882812 13.93945312 C14.03700128 16.29299531 14.01906521 18.64650532 14 21 C17.96 20.67 21.92 20.34 26 20 C26.99108605 16.03565581 27.06788192 12.93943006 27 8.875 C26.88933602 2.22132797 26.88933602 2.22132797 28 0 C32.62 0 37.24 0 42 0 C42 18.48 42 36.96 42 56 C37.25504251 58.37247875 35.18737832 58.25100218 30 58 C29.34 57.67 28.68 57.34 28 57 C26.6271604 52.39053195 26.66745093 47.46369386 26.4375 42.6875 C26.39431641 41.85154297 26.35113281 41.01558594 26.30664062 40.15429688 C26.20114693 38.10303065 26.10012685 36.0515352 26 34 C25.38511719 34.01160156 24.77023438 34.02320313 24.13671875 34.03515625 C23.32847656 34.04417969 22.52023438 34.05320313 21.6875 34.0625 C20.88699219 34.07410156 20.08648437 34.08570313 19.26171875 34.09765625 C17 34 17 34 14 33 C14.01047363 33.68626465 14.02094727 34.3725293 14.03173828 35.07958984 C14.07321874 38.17802289 14.09930069 41.27639761 14.125 44.375 C14.14175781 45.45523438 14.15851563 46.53546875 14.17578125 47.6484375 C14.18222656 48.6796875 14.18867187 49.7109375 14.1953125 50.7734375 C14.20578613 51.72653809 14.21625977 52.67963867 14.22705078 53.66162109 C14 56 14 56 12 58 C9.6875 58.23046875 9.6875 58.23046875 7 58.1875 C5.6696875 58.17783203 5.6696875 58.17783203 4.3125 58.16796875 C2 58 2 58 0 57 C-0.16863535 49.84684442 -0.32844803 42.6935304 -0.48217773 35.54003906 C-0.53549148 33.10737666 -0.59081218 30.67475736 -0.64819336 28.2421875 C-0.73040111 24.74228204 -0.80535029 21.24228418 -0.87890625 17.7421875 C-0.90594131 16.65759247 -0.93297638 15.57299744 -0.96083069 14.45553589 C-1.05827226 9.50689085 -1.08924546 4.86309589 0 0 Z " fill="#FBFEFD" transform="translate(104,7)"/>
<path d="M0 0 C3.35286458 0.03255208 6.70572917 0.06510417 10.05859375 0.09765625 C10.38859375 5.37765625 10.71859375 10.65765625 11.05859375 16.09765625 C12.91484375 16.03578125 14.77109375 15.97390625 16.68359375 15.91015625 C21.59835953 15.9217204 24.96781496 16.13184163 29.05859375 19.09765625 C33.94642425 24.12125981 35.34560548 29.44883054 35.37109375 36.34765625 C35.22424998 43.91442931 34.43176253 50.19052449 29.55859375 56.16015625 C25.27385347 59.16586958 20.13948921 59.26294705 15.05859375 59.09765625 C12.30829258 58.60446816 9.74759018 57.87990976 7.05859375 57.09765625 C6.06859375 57.59265625 6.06859375 57.59265625 5.05859375 58.09765625 C-0.47986779 58.32842548 -0.47986779 58.32842548 -2.94140625 57.09765625 C-4.1150181 50.70411994 -4.08727124 44.33523896 -4.07421875 37.8515625 C-4.07517548 36.7998436 -4.0761322 35.74812469 -4.07711792 34.66453552 C-4.07779502 32.45677632 -4.07597368 30.24901508 -4.07177734 28.04125977 C-4.06638472 24.64660249 -4.07175742 21.25207527 -4.078125 17.85742188 C-4.07746487 15.70963512 -4.07618507 13.56184845 -4.07421875 11.4140625 C-4.07624298 10.39437881 -4.07826721 9.37469513 -4.08035278 8.32411194 C-4.07720062 7.38901291 -4.07404846 6.45391388 -4.07080078 5.49047852 C-4.07000519 4.66411392 -4.06920959 3.83774933 -4.06838989 2.98634338 C-3.85561677 -0.1783308 -3.21956708 0.10689134 0 0 Z M11.05859375 29.09765625 C10.72859375 34.37765625 10.39859375 39.65765625 10.05859375 45.09765625 C14.23767439 47.18719657 14.86269948 47.26318244 19.05859375 46.09765625 C21.34826345 40.84488459 21.14668294 36.5930562 20.05859375 31.09765625 C19.26255891 28.9408524 19.26255891 28.9408524 17.24609375 28.41015625 C14.73560475 27.91115154 14.73560475 27.91115154 11.05859375 29.09765625 Z " fill="#FBFEFD" transform="translate(193.94140625,6.90234375)"/>
<path d="M0 0 C1.48693359 0.13535156 1.48693359 0.13535156 3.00390625 0.2734375 C5.4375 0.625 5.4375 0.625 6.4375 1.625 C6.59556531 3.54978813 6.688635 5.4799921 6.75390625 7.41015625 C6.81674805 9.16489258 6.81674805 9.16489258 6.88085938 10.95507812 C6.92017578 12.18677734 6.95949219 13.41847656 7 14.6875 C7.04318359 15.92306641 7.08636719 17.15863281 7.13085938 18.43164062 C7.23734198 21.49597335 7.33935424 24.56039073 7.4375 27.625 C10.44781744 28.55923645 11.30400268 28.66949911 14.4375 27.625 C14.7675 18.715 15.0975 9.805 15.4375 0.625 C22.16518536 -0.33609791 23.66028161 -0.37934107 29.4375 1.625 C29.48685824 6.85773331 29.52319949 12.09033176 29.54736328 17.32324219 C29.55743431 19.10419067 29.57109185 20.88512257 29.58837891 22.66601562 C29.61257913 25.22269783 29.62397184 27.77916185 29.6328125 30.3359375 C29.64313507 31.13494476 29.65345764 31.93395203 29.66409302 32.75717163 C29.66449226 34.7145722 29.55991069 36.67143077 29.4375 38.625 C27.4375 40.625 27.4375 40.625 24 40.8125 C20.4375 40.625 20.4375 40.625 17.4375 39.625 C16.385625 39.934375 15.33375 40.24375 14.25 40.5625 C8.83743315 42.07092027 4.59423225 42.41303679 -0.8125 40.4375 C-3.91789643 38.39076145 -5.54188462 36.75365183 -7.5625 33.625 C-7.90541942 30.90874631 -8.03322866 28.6185759 -7.953125 25.91796875 C-7.94746521 25.19257401 -7.94180542 24.46717926 -7.93597412 23.71980286 C-7.91369099 21.41667992 -7.86351487 19.11514776 -7.8125 16.8125 C-7.79242434 15.24546528 -7.77417543 13.67840601 -7.7578125 12.11132812 C-7.71385337 8.28194481 -7.64488623 4.45374154 -7.5625 0.625 C-4.85446778 -0.72901611 -2.99767683 -0.28921523 0 0 Z " fill="#F9FEFD" transform="translate(157.5625,24.375)"/>
<path d="M0 0 C1.74023438 0.00966797 1.74023438 0.00966797 3.515625 0.01953125 C4.7221875 0.03628906 5.92875 0.05304687 7.171875 0.0703125 C9.00492187 0.08384766 9.00492187 0.08384766 10.875 0.09765625 C13.89082282 0.12121737 16.90624992 0.15411544 19.921875 0.1953125 C20.416875 2.1753125 20.416875 2.1753125 20.921875 4.1953125 C17.921875 6.1953125 17.921875 6.1953125 14.921875 6.1953125 C15.416875 7.1853125 15.416875 7.1853125 15.921875 8.1953125 C16.07088991 10.29584966 16.14325953 12.40219075 16.171875 14.5078125 C16.19765625 15.63832031 16.2234375 16.76882812 16.25 17.93359375 C15.80103772 22.39649259 14.27294978 25.01312206 10.921875 27.9453125 C7.03485956 29.56490227 3.43184959 29.70222539 -0.75 29.88671875 C-1.51828125 29.98855469 -2.2865625 30.09039062 -3.078125 30.1953125 C-3.408125 30.8553125 -3.738125 31.5153125 -4.078125 32.1953125 C-2.77617187 32.35386719 -1.47421875 32.51242188 -0.1328125 32.67578125 C1.59389572 32.91038834 3.32045068 33.1461253 5.046875 33.3828125 C5.9028125 33.48400391 6.75875 33.58519531 7.640625 33.68945312 C13.52190538 34.52640456 16.89855462 35.72495652 20.921875 40.1953125 C22.14993723 44.16919591 21.82380166 48.29651953 20.03125 52.0703125 C17.15456179 55.90589679 13.39462741 57.8162092 8.921875 59.1953125 C6.13369769 59.4749527 3.63164175 59.61779185 0.859375 59.5703125 C0.17810547 59.58191406 -0.50316406 59.59351563 -1.20507812 59.60546875 C-6.68778229 59.57386815 -10.55257154 58.11124961 -14.890625 54.8203125 C-16.92438403 52.03727383 -17.26216157 49.63884935 -16.828125 46.234375 C-15.68181171 40.72797725 -15.68181171 40.72797725 -12.953125 38.3203125 C-10.24511069 35.25122962 -10.63847579 32.60519725 -10.64453125 28.6328125 C-10.89127899 26.12303045 -10.89127899 26.12303045 -12.578125 24.3125 C-15.75240857 19.832131 -14.63116793 13.43402683 -14.078125 8.1953125 C-12.92847658 4.90554934 -11.29251293 2.97358496 -8.31738281 1.06689453 C-5.43542462 -0.05484454 -3.08990592 -0.0302932 0 0 Z M-5.078125 7.0703125 C-7.74111252 9.89973674 -7.87825586 12.15671865 -8.23046875 15.94140625 C-8.05491731 18.53866733 -7.52530014 20.03641188 -6.078125 22.1953125 C-2.43493103 23.40971049 1.13030825 23.80662077 4.921875 23.1953125 C7.22590788 22.09359179 7.22590788 22.09359179 8.921875 20.1953125 C9.47940493 17.79359966 9.47940493 17.79359966 9.296875 15.1953125 C9.28398437 14.3290625 9.27109375 13.4628125 9.2578125 12.5703125 C9.05946791 9.93294169 9.05946791 9.93294169 6.921875 7.1953125 C2.83830396 5.9277207 -0.99433714 5.87920771 -5.078125 7.0703125 Z M-10.078125 44.1953125 C-9.75485947 47.79210316 -9.75485947 47.79210316 -9.078125 51.1953125 C-1.6759529 53.41596413 4.44438281 53.2950763 11.921875 51.1953125 C14.33309359 49.23897275 14.33309359 49.23897275 14.046875 45.5703125 C14.005625 44.4565625 13.964375 43.3428125 13.921875 42.1953125 C5.18003545 39.40536371 -2.85154409 36.96873159 -10.078125 44.1953125 Z " fill="#F4FDFD" transform="translate(333.078125,24.8046875)"/>
<path d="M0 0 C0.886875 -0.01417969 1.77375 -0.02835938 2.6875 -0.04296875 C5 0.1875 5 0.1875 7 2.1875 C7.1953125 4.3515625 7.1953125 4.3515625 7.125 6.8125 C7.10695313 7.62976563 7.08890625 8.44703125 7.0703125 9.2890625 C7.04710938 9.91554688 7.02390625 10.54203125 7 11.1875 C8.134375 11.166875 9.26875 11.14625 10.4375 11.125 C14 11.1875 14 11.1875 15 12.1875 C15.07226502 14.04037502 15.0838122 15.89583878 15.0625 17.75 C15.05347656 18.76191406 15.04445313 19.77382813 15.03515625 20.81640625 C15.02355469 21.59886719 15.01195313 22.38132812 15 23.1875 C12.36 23.1875 9.72 23.1875 7 23.1875 C7 28.7975 7 34.4075 7 40.1875 C9.64 40.5175 12.28 40.8475 15 41.1875 C15.22174933 42.64385371 15.42698698 44.10272956 15.625 45.5625 C15.79902344 46.78066406 15.79902344 46.78066406 15.9765625 48.0234375 C15.98429687 48.73757812 15.99203125 49.45171875 16 50.1875 C13.13403678 53.05346322 10.54417519 52.90402531 6.60546875 53.2109375 C2.53678455 53.17433764 0.48149316 52.34602576 -3 50.1875 C-7.6392651 44.92467776 -7.49663049 40.46203742 -7.25 33.8125 C-7.23195313 32.88566406 -7.21390625 31.95882812 -7.1953125 31.00390625 C-7.14844197 28.73068565 -7.08285525 26.45964593 -7 24.1875 C-7.969375 24.043125 -8.93875 23.89875 -9.9375 23.75 C-13 23.1875 -13 23.1875 -14 22.1875 C-14.23728814 15.66207627 -14.23728814 15.66207627 -13 13.1875 C-11.35636866 12.46590576 -9.68949614 11.79398579 -8 11.1875 C-7.95101562 10.47722656 -7.90203125 9.76695313 -7.8515625 9.03515625 C-7.73941406 7.65650391 -7.73941406 7.65650391 -7.625 6.25 C-7.55539063 5.33347656 -7.48578125 4.41695312 -7.4140625 3.47265625 C-7.27742188 2.71855469 -7.14078125 1.96445313 -7 1.1875 C-4.52224905 -0.05137548 -2.76346293 0.02008331 0 0 Z " fill="#FAFDFD" transform="translate(85,12.8125)"/>
<path d="M0 0 C4.14562551 3.45468792 6.76230601 7.19073227 7.73828125 12.5625 C8.05972246 19.17500489 6.72223004 23.9288108 2.25 28.875 C-0.4375 30.8125 -0.4375 30.8125 -2.75 31.875 C-3.74 32.37 -3.74 32.37 -4.75 32.875 C-6.12548156 32.95808638 -7.50485796 32.98236016 -8.8828125 32.97265625 C-9.68847656 32.96943359 -10.49414062 32.96621094 -11.32421875 32.96289062 C-12.58685547 32.95032227 -12.58685547 32.95032227 -13.875 32.9375 C-14.72449219 32.93298828 -15.57398438 32.92847656 -16.44921875 32.92382812 C-18.54950909 32.91202874 -20.6497633 32.89409306 -22.75 32.875 C-22.74476318 33.5362085 -22.73952637 34.19741699 -22.73413086 34.87866211 C-22.71342344 37.85659851 -22.70035988 40.83451982 -22.6875 43.8125 C-22.67912109 44.85341797 -22.67074219 45.89433594 -22.66210938 46.96679688 C-22.65888672 47.95615234 -22.65566406 48.94550781 -22.65234375 49.96484375 C-22.64710693 50.88128662 -22.64187012 51.79772949 -22.63647461 52.74194336 C-22.75 54.875 -22.75 54.875 -23.75 55.875 C-26.75 56 -26.75 56 -29.75 55.875 C-30.75 54.875 -30.75 54.875 -30.87025452 52.59080505 C-30.86803391 51.58042679 -30.86581329 50.57004852 -30.86352539 49.52905273 C-30.86344986 48.3879454 -30.86337433 47.24683807 -30.86329651 46.07115173 C-30.85813522 44.8295076 -30.85297394 43.58786346 -30.84765625 42.30859375 C-30.8462413 41.04483414 -30.84482635 39.78107452 -30.84336853 38.47901917 C-30.83870582 35.11375111 -30.8297148 31.7485501 -30.81866455 28.38330078 C-30.80844846 24.9515033 -30.80387049 21.51969891 -30.79882812 18.08789062 C-30.7877738 11.35024176 -30.7710171 4.61262475 -30.75 -2.125 C-20.96698658 -4.79988639 -9.34293961 -3.82211166 0 0 Z M-23.75 4.875 C-23.83685603 6.43672745 -23.85702219 8.00229344 -23.84765625 9.56640625 C-23.84443359 10.51064453 -23.84121094 11.45488281 -23.83789062 12.42773438 C-23.82951172 13.42095703 -23.82113281 14.41417969 -23.8125 15.4375 C-23.80798828 16.43458984 -23.80347656 17.43167969 -23.79882812 18.45898438 C-23.78700007 20.93104849 -23.77051849 23.40299518 -23.75 25.875 C-20.99973583 25.92904449 -18.25053797 25.96869306 -15.5 26 C-14.33404297 26.02513672 -14.33404297 26.02513672 -13.14453125 26.05078125 C-7.66693064 26.13468301 -7.66693064 26.13468301 -2.75 23.875 C-2.75 23.215 -2.75 22.555 -2.75 21.875 C-2.09 21.875 -1.43 21.875 -0.75 21.875 C0.02825878 13.83119045 0.02825878 13.83119045 -3 6.6875 C-7.47006079 3.74132357 -11.12537451 3.73810274 -16.4375 3.75 C-18.17580078 3.74613281 -18.17580078 3.74613281 -19.94921875 3.7421875 C-22.65499156 3.55571827 -22.65499156 3.55571827 -23.75 4.875 Z " fill="#F7FDFD" transform="translate(273.75,9.125)"/>
<path d="M0 0 C2.59393856 2.8371203 3.02858292 4.28542702 2.875 8.125 C1.99973834 11.00085972 1.32976763 12.1767036 -1 14 C-0.01 14.66 0.98 15.32 2 16 C2.29159149 18.88493931 2.39590537 21.55187937 2.36328125 24.4375 C2.36377975 25.27337646 2.36427826 26.10925293 2.36479187 26.97045898 C2.36244959 28.73911921 2.35271197 30.50778266 2.33618164 32.27636719 C2.31259361 34.98923432 2.31561867 37.70111895 2.32226562 40.4140625 C2.31668889 42.13021421 2.30957904 43.84636178 2.30078125 45.5625 C2.30214836 46.7844104 2.30214836 46.7844104 2.30354309 48.03100586 C2.23102158 53.76897842 2.23102158 53.76897842 0 56 C-2.3125 56.265625 -2.3125 56.265625 -5 56.25 C-6.3303125 56.25773437 -6.3303125 56.25773437 -7.6875 56.265625 C-10 56 -10 56 -12 54 C-12.19990227 51.15459858 -12.27976976 48.40862216 -12.265625 45.5625 C-12.26753845 44.72662354 -12.2694519 43.89074707 -12.27142334 43.02954102 C-12.27278536 41.26090189 -12.26908776 39.49225277 -12.26074219 37.72363281 C-12.25004275 35.01084006 -12.26063676 32.29870956 -12.2734375 29.5859375 C-12.27211591 27.8697902 -12.26955352 26.15364331 -12.265625 24.4375 C-12.26967346 23.62289307 -12.27372192 22.80828613 -12.27789307 21.96899414 C-12.22991928 16.22991928 -12.22991928 16.22991928 -10 14 C-10.515625 13.29875 -11.03125 12.5975 -11.5625 11.875 C-13.33603072 8.32793857 -13.14147004 6.7505444 -12 3 C-8.46335666 -1.45924595 -5.39779228 -1.32577354 0 0 Z " fill="#F8FDFD" transform="translate(68,9)"/>
<path d="M0 0 C1.22332031 -0.03738281 2.44664062 -0.07476563 3.70703125 -0.11328125 C7.78656539 0.38578634 9.31625849 1.43607574 12.1875 4.3125 C16.24257544 11.02434901 15.1875 14.56868803 15.1875 23.3125 C7.2675 23.3125 -0.6525 23.3125 -8.8125 23.3125 C-7.73299713 30.7378676 -7.73299713 30.7378676 -5.1875 32.8125 C-0.31390393 33.83852022 4.24783793 33.44673744 9.125 32.75 C10.135625 32.605625 11.14625 32.46125 12.1875 32.3125 C13.1875 33.3125 13.1875 33.3125 13.25 35.875 C13.229375 36.679375 13.20875 37.48375 13.1875 38.3125 C7.73648663 41.46630059 0.9115155 41.9792189 -5.234375 40.87890625 C-9.75233496 39.3757504 -12.36967665 37.352554 -14.8125 33.3125 C-17.8220994 25.69614917 -18.217774 16.52474869 -15.625 8.6875 C-11.88278043 1.71922908 -7.52124191 0.14963727 0 0 Z M-7.8125 9.3125 C-8.4725 11.9525 -9.1325 14.5925 -9.8125 17.3125 C-4.2025 17.3125 1.4075 17.3125 7.1875 17.3125 C7.96672803 10.63492548 7.96672803 10.63492548 5 7.875 C0.08411371 5.14395206 -3.53291358 5.61123607 -7.8125 9.3125 Z " fill="#F6FDFD" transform="translate(371.8125,24.6875)"/>
<path d="M0 0 C0.70318359 -0.01160156 1.40636719 -0.02320312 2.13085938 -0.03515625 C6.61975458 -0.0099141 9.51690838 0.59337564 13.0625 3.375 C15.52355545 7.06658318 15.31825793 9.84123554 15.2578125 14.10546875 C15.2549826 14.85588943 15.25215271 15.60631012 15.24923706 16.37947083 C15.23805062 18.77397675 15.21294928 21.16810731 15.1875 23.5625 C15.17746819 25.18684355 15.16834269 26.81119297 15.16015625 28.43554688 C15.13811637 32.415509 15.1035974 36.39519088 15.0625 40.375 C13.43634766 40.0965625 13.43634766 40.0965625 11.77734375 39.8125 C8.06853304 39.1310729 8.06853304 39.1310729 4.625 40.375 C-1.07744042 41.97568503 -5.07889388 41.33872169 -10.3125 38.625 C-14.19853969 35.29410884 -14.79372567 32.9565176 -15.25 27.9375 C-14.89558908 23.89721557 -14.27576975 21.69383448 -11.9375 18.375 C-5.83238098 14.52612062 1.00232486 14.68288734 8.0625 14.375 C7.7325 12.065 7.4025 9.755 7.0625 7.375 C0.9519576 7.26230557 -4.88920514 7.47895632 -10.9375 8.375 C-11.2675 6.725 -11.5975 5.075 -11.9375 3.375 C-8.34587156 -0.1513261 -4.76850062 -0.0782434 0 0 Z M-5.8125 22.6875 C-7.16908572 24.72237858 -7.79273761 25.91403929 -7.9375 28.375 C-6.16886411 32.07259178 -6.16886411 32.07259178 -2.9375 34.375 C-0.82129595 34.35191383 -0.82129595 34.35191383 1.5 34.0625 C2.28246094 33.98386719 3.06492187 33.90523437 3.87109375 33.82421875 C6.34097118 33.46113351 6.34097118 33.46113351 9.0625 31.375 C9.42710453 28.70846095 9.42710453 28.70846095 9.25 25.75 C9.22292969 24.74710938 9.19585937 23.74421875 9.16796875 22.7109375 C9.11576172 21.55464844 9.11576172 21.55464844 9.0625 20.375 C1.25017891 19.99623395 1.25017891 19.99623395 -5.8125 22.6875 Z " fill="#F4FDFD" transform="translate(297.9375,24.625)"/>
<path d="M0 0 C1.30066406 0.01289063 2.60132813 0.02578125 3.94140625 0.0390625 C7.0677071 0.33946683 8.82996645 0.71626365 11.4375 2.375 C11.4375 4.355 11.4375 6.335 11.4375 8.375 C10.36822266 8.24931641 10.36822266 8.24931641 9.27734375 8.12109375 C3.74730427 7.53310839 -1.10278471 7.28305694 -6.5625 8.375 C-6.8925 10.685 -7.2225 12.995 -7.5625 15.375 C-6.510625 15.41367187 -6.510625 15.41367187 -5.4375 15.453125 C0.72830047 15.82173264 6.44599103 16.43433503 11.4375 20.375 C13.81585557 24.18978814 14.31974251 27.98829418 13.4375 32.375 C11.99736685 35.50545893 10.28965724 37.44340844 7.4375 39.375 C-0.07687126 41.99855204 -7.01567584 41.54554677 -14.5625 39.375 C-14.5625 37.065 -14.5625 34.755 -14.5625 32.375 C-13.60988281 32.47039063 -12.65726562 32.56578125 -11.67578125 32.6640625 C-10.42152344 32.77492187 -9.16726563 32.88578125 -7.875 33 C-6.63363281 33.11601563 -5.39226562 33.23203125 -4.11328125 33.3515625 C-0.60705896 33.37470588 1.40057953 33.07973974 4.4375 31.375 C5.51022562 28.92960214 5.51022562 28.92960214 5.4375 26.375 C2.24397088 23.18147088 -1.95888419 23.17340391 -6.30078125 22.3515625 C-9.90433709 21.27265356 -11.89184942 20.00186942 -14.5625 17.375 C-15.75505047 13.35014216 -15.83711824 11.15308502 -14.4375 7.1875 C-10.4600601 1.22134015 -7.11837413 -0.15551562 0 0 Z " fill="#F4FDFD" transform="translate(406.5625,24.625)"/>
<path d="M0 0 C0.99 0.33 1.98 0.66 3 1 C2.67 19.15 2.34 37.3 2 56 C3.32 56 4.64 56 6 56 C6 53.03 6 50.06 6 47 C8.43769218 50.65653827 8.23944439 52.69000101 8 57 C7 58 7 58 4 58.125 C1 58 1 58 0 57 C-0.09370624 55.22008076 -0.11744271 53.43643261 -0.11352539 51.65405273 C-0.11344986 50.5129454 -0.11337433 49.37183807 -0.11329651 48.19615173 C-0.10813522 46.9545076 -0.10297394 45.71286346 -0.09765625 44.43359375 C-0.0962413 43.16983414 -0.09482635 41.90607452 -0.09336853 40.60401917 C-0.08870582 37.23875111 -0.0797148 33.8735501 -0.06866455 30.50830078 C-0.05844846 27.0765033 -0.05387049 23.64469891 -0.04882812 20.21289062 C-0.0377738 13.47524176 -0.0210171 6.73762475 0 0 Z " fill="#E5FAFE" transform="translate(243,7)"/>
<path d="M0 0 C2.14576637 -0.02685938 4.29162645 -0.04633088 6.4375 -0.0625 C7.63246094 -0.07410156 8.82742187 -0.08570313 10.05859375 -0.09765625 C13 0 13 0 14 1 C14.07244053 3.01964199 14.08377188 5.04167124 14.0625 7.0625 C14.05347656 8.16722656 14.04445313 9.27195312 14.03515625 10.41015625 C14.02355469 11.26480469 14.01195313 12.11945312 14 13 C13.67 13 13.34 13 13 13 C13 9.37 13 5.74 13 2 C10.5559375 2.2165625 10.5559375 2.2165625 8.0625 2.4375 C7.14597656 2.51871094 6.22945313 2.59992187 5.28515625 2.68359375 C3.03840268 2.76044976 3.03840268 2.76044976 2 4 C1.87718048 5.62579218 1.82217496 7.25677004 1.79467773 8.88696289 C1.77473251 9.92796646 1.75478729 10.96897003 1.73423767 12.04151917 C1.71752518 13.1737944 1.70081268 14.30606964 1.68359375 15.47265625 C1.66281265 16.62543564 1.64203156 17.77821503 1.62062073 18.96592712 C1.55500036 22.66472157 1.49618245 26.36358959 1.4375 30.0625 C1.39432665 32.56315879 1.35071276 35.06381001 1.30664062 37.56445312 C1.19930628 43.70955915 1.09807441 49.8547395 1 56 C4.96 56 8.92 56 13 56 C12.67 56.66 12.34 57.32 12 58 C10.37509046 58.02698189 8.75005367 58.04638757 7.125 58.0625 C5.76761719 58.07990234 5.76761719 58.07990234 4.3828125 58.09765625 C2 58 2 58 0 57 C-0.16863535 49.84684442 -0.32844803 42.6935304 -0.48217773 35.54003906 C-0.53549148 33.10737666 -0.59081218 30.67475736 -0.64819336 28.2421875 C-0.73040111 24.74228204 -0.80535029 21.24228418 -0.87890625 17.7421875 C-0.90594131 16.65759247 -0.93297638 15.57299744 -0.96083069 14.45553589 C-1.05827226 9.50689085 -1.08924546 4.86309589 0 0 Z " fill="#ECFEFF" transform="translate(104,7)"/>
<path d="M0 0 C3.13001564 2.56092188 3.92282604 5.15884349 5 9 C5.7988165 17.17490135 5.90676218 26.90622748 0.67578125 33.7265625 C-1.94465418 36.18880892 -3.80523824 36.9819665 -7.375 37.3125 C-8.24125 37.209375 -9.1075 37.10625 -10 37 C-9.67 36.34 -9.34 35.68 -9 35 C-7.5459375 34.8453125 -7.5459375 34.8453125 -6.0625 34.6875 C-4.5465625 34.3471875 -4.5465625 34.3471875 -3 34 C-1.67518454 31.60470331 -1.67518454 31.60470331 -1 29 C-0.34 28.34 0.32 27.68 1 27 C1.7210831 24.7460571 1.7210831 24.7460571 2.1875 22.1875 C2.36667969 21.33542969 2.54585937 20.48335937 2.73046875 19.60546875 C3.02066001 16.80028659 2.66292119 14.72732008 2 12 C1.66666667 9.66666667 1.33333333 7.33333333 1 5 C0.68033861 3.33065717 0.35268934 1.6626783 0 0 Z " fill="#EBFDFE" transform="translate(224,28)"/>
<path d="M0 0 C0.66 0.33 1.32 0.66 2 1 C0.22518969 2.77481031 -1.54248658 4.47293702 -3.4375 6.125 C-11.02464054 14.63740158 -11.10815631 25.1218539 -12 36 C-12.33 36 -12.66 36 -13 36 C-13.80328812 13.95420371 -13.80328812 13.95420371 -5.9375 4.875 C-2.44974446 1.22487223 -2.44974446 1.22487223 0 0 Z " fill="#EBFCFE" transform="translate(20,7)"/>
<path d="M0 0 C1.47906892 -0.02689216 2.95827483 -0.04634621 4.4375 -0.0625 C5.26121094 -0.07410156 6.08492187 -0.08570312 6.93359375 -0.09765625 C9 0 9 0 10 1 C10.08758003 2.99964982 10.10696576 5.0023611 10.09765625 7.00390625 C10.09443359 8.21884766 10.09121094 9.43378906 10.08789062 10.68554688 C10.07951172 11.96494141 10.07113281 13.24433594 10.0625 14.5625 C10.05798828 15.84576172 10.05347656 17.12902344 10.04882812 18.45117188 C10.03699545 21.63416022 10.02051068 24.81705762 10 28 C8.50244141 26.80102539 8.50244141 26.80102539 7 25 C6.76708984 22.76342773 6.76708984 22.76342773 6.9609375 20.18359375 C7.02023438 19.25482422 7.07953125 18.32605469 7.140625 17.36914062 C7.21796875 16.40169922 7.2953125 15.43425781 7.375 14.4375 C7.512429 12.51985651 7.64546212 10.60189133 7.7734375 8.68359375 C7.83966309 7.83337646 7.90588867 6.98315918 7.97412109 6.10717773 C8.16164823 3.94149331 8.16164823 3.94149331 7 2 C4.67843403 1.59270772 2.3431213 1.25561323 0 1 C0 0.67 0 0.34 0 0 Z " fill="#ECFBFD" transform="translate(154,25)"/>
<path d="M0 0 C0.33 0 0.66 0 1 0 C1 2.97 1 5.94 1 9 C3.64 9 6.28 9 9 9 C9.77470902 12.38935196 10.45627547 15.53230644 10 19 C8.4375 20.875 8.4375 20.875 6 22 C2.25 21.6875 2.25 21.6875 -1 21 C-1 20.67 -1 20.34 -1 20 C2.96 19.505 2.96 19.505 7 19 C7.33 16.36 7.66 13.72 8 11 C5.69 11 3.38 11 1 11 C-1.03684712 6.92630576 -1.0257259 4.41062136 0 0 Z " fill="#E9FBFE" transform="translate(30,32)"/>
<path d="M0 0 C3.67873693 0.24524913 5.44132685 0.36924 7.9375 3.1875 C9.24718959 6.65432539 9.07286794 8.47486247 8 12 C6.4375 13.875 6.4375 13.875 5 15 C4.01 14.67 3.02 14.34 2 14 C2.66 13.46375 3.32 12.9275 4 12.375 C6.31024799 10.10041408 6.31024799 10.10041408 6.25 6.75 C6.1675 5.8425 6.085 4.935 6 4 C4.02 3.01 2.04 2.02 0 1 C0 0.67 0 0.34 0 0 Z " fill="#EAFCFE" transform="translate(62,8)"/>
<path d="M0 0 C1.79447617 2.20231167 3.00262953 4.00706686 4 6.6875 C4.33 7.450625 4.66 8.21375 5 9 C5.99 9.33 6.98 9.66 8 10 C9 11 10 12 11 13 C13.09989652 14.17574711 13.09989652 14.17574711 15 15 C14.01 15.33 13.02 15.66 12 16 C6.47123754 12.94153566 2.36865448 8.92163619 0 3 C0 2.01 0 1.02 0 0 Z " fill="#E9FDFE" transform="translate(9,48)"/>
<path d="M0 0 C0.33 0 0.66 0 1 0 C1.24915939 1.76813112 1.47366632 3.53974982 1.6875 5.3125 C1.81511719 6.29863281 1.94273437 7.28476562 2.07421875 8.30078125 C2 11 2 11 0.75 12.8125 C-1.96729978 14.65638199 -4.7887783 14.69705456 -8 15 C-8.33 14.34 -8.66 13.68 -9 13 C-6.69 12.34 -4.38 11.68 -2 11 C-1.34 7.37 -0.68 3.74 0 0 Z " fill="#EEFCFE" transform="translate(215,41)"/>
<path d="M0 0 C0.99 0.33 1.98 0.66 3 1 C3 4.63 3 8.26 3 12 C0.36 12 -2.28 12 -5 12 C-4.34 11.34 -3.68 10.68 -3 10 C-1.68 10.33 -0.36 10.66 1 11 C0.67 7.37 0.34 3.74 0 0 Z " fill="#E7FBFE" transform="translate(97,24)"/>
<path d="M0 0 C1.98 0 3.96 0 6 0 C6.22174933 1.45635371 6.42698698 2.91522956 6.625 4.375 C6.74101563 5.18710937 6.85703125 5.99921875 6.9765625 6.8359375 C6.98429687 7.55007812 6.99203125 8.26421875 7 9 C6.34 9.66 5.68 10.32 5 11 C4.01 10.67 3.02 10.34 2 10 C2.99 7.36 3.98 4.72 5 2 C3.35 1.67 1.7 1.34 0 1 C0 0.67 0 0.34 0 0 Z " fill="#E8FCFE" transform="translate(94,54)"/>
<path d="M0 0 C0.33 0 0.66 0 1 0 C1.49230769 7.38461538 1.49230769 7.38461538 -1 10.5 C-1.66 10.995 -2.32 11.49 -3 12 C-3 10.68 -3 9.36 -3 8 C-2.34 7.67 -1.68 7.34 -1 7 C-0.59270772 4.67843403 -0.25561323 2.3431213 0 0 Z " fill="#EDFEFF" transform="translate(419,49)"/>
<path d="M0 0 C0.33 0 0.66 0 1 0 C1.33 3.63 1.66 7.26 2 11 C1.01 11 0.02 11 -1 11 C-0.67 7.37 -0.34 3.74 0 0 Z " fill="#E9FDFE" transform="translate(91,44)"/>
</svg>
